<?xml version="1.0" standalone="no"?>
<!DOCTYPE svg PUBLIC "-//W3C//DTD SVG 20010904//EN"
 "http://www.w3.org/TR/2001/REC-SVG-20010904/DTD/svg10.dtd">
<svg version="1.0" xmlns="http://www.w3.org/2000/svg"
 width="1024.000000pt" height="1024.000000pt" viewBox="0 0 1024.000000 1024.000000"
 preserveAspectRatio="xMidYMid meet">
<metadata>
Created by potrace 1.11, written by Peter Selinger 2001-2013
</metadata>
<g transform="translate(0.000000,1024.000000) scale(0.100000,-0.100000)"
fill="#000000" stroke="none">
<path d="M6877 9604 c-3 -3 -67 -7 -143 -10 -77 -2 -161 -6 -189 -9 -27 -2
-77 -7 -110 -10 -33 -3 -76 -8 -95 -11 -45 -7 -85 -13 -138 -19 -24 -3 -63
-10 -88 -15 -24 -6 -61 -13 -80 -16 -40 -6 -42 -7 -130 -28 -34 -8 -72 -17
-85 -20 -13 -3 -51 -13 -84 -22 -33 -9 -64 -17 -70 -18 -5 -1 -23 -6 -40 -13
-16 -6 -50 -17 -75 -24 -64 -18 -360 -129 -390 -145 -32 -17 -83 -38 -92 -36
-3 1 -12 -5 -18 -13 -7 -8 -18 -15 -24 -15 -6 0 -58 -25 -116 -55 -58 -30
-112 -58 -120 -62 -58 -27 -440 -270 -460 -293 -3 -3 -43 -34 -90 -70 -92 -69
-101 -77 -234 -195 -126 -111 -284 -273 -386 -394 -25 -30 -50 -59 -55 -65
-20 -22 -60 -74 -75 -96 -8 -12 -22 -30 -31 -39 -9 -9 -38 -47 -65 -86 -27
-38 -52 -74 -56 -80 -23 -30 -98 -149 -98 -154 0 -4 -8 -16 -17 -27 -10 -11
-27 -37 -38 -59 -11 -22 -23 -42 -26 -45 -16 -13 -249 -486 -249 -506 0 -3 -7
-20 -15 -37 -8 -18 -27 -68 -43 -112 l-30 -80 -46 0 c-25 0 -46 -4 -46 -8 0
-5 -4 -6 -10 -2 -7 4 -189 7 -280 4 -8 -1 -59 0 -113 2 -53 1 -99 0 -102 -3
-3 -3 -23 -2 -45 2 -22 4 -42 5 -45 2 -3 -3 -15 -7 -27 -9 -57 -9 -113 -50
-154 -113 l-29 -45 -3 -356 c-2 -342 -1 -359 19 -405 11 -27 37 -64 57 -82 67
-62 82 -65 347 -66 l240 -1 -3 -100 c-5 -168 -4 -606 1 -677 l6 -68 -27 -1
c-15 -1 -31 -1 -36 0 -28 5 -116 5 -116 0 0 -4 -18 -3 -39 1 -22 4 -45 4 -52
-1 -7 -4 -21 -4 -33 0 -11 5 -35 5 -53 1 -18 -5 -35 -4 -38 1 -3 4 -11 6 -18
4 -7 -2 -29 -7 -51 -10 -75 -11 -127 -45 -172 -115 l-29 -45 0 -364 c0 -283 3
-365 13 -369 6 -2 12 -10 12 -19 0 -24 69 -91 114 -110 36 -15 81 -17 364 -19
178 0 327 -5 332 -10 5 -5 20 -47 34 -94 47 -161 119 -357 183 -500 64 -141
85 -187 93 -200 5 -8 22 -40 37 -70 14 -30 30 -57 35 -58 4 -2 8 -9 8 -14 0
-14 92 -172 102 -176 4 -2 8 -8 8 -13 0 -12 52 -93 63 -97 4 -2 7 -8 7 -14 0
-14 143 -212 239 -331 96 -120 348 -383 466 -487 54 -48 229 -187 288 -230 27
-19 56 -42 66 -50 9 -8 29 -21 44 -27 15 -7 27 -17 27 -23 0 -5 4 -10 9 -10 5
0 51 -26 102 -59 102 -64 130 -80 263 -152 49 -27 95 -49 101 -49 7 0 18 -7
25 -15 7 -8 20 -15 29 -15 9 0 21 -4 26 -9 13 -11 124 -59 245 -106 52 -21
104 -41 115 -46 104 -44 514 -154 645 -173 8 -2 29 -6 45 -9 58 -13 94 -18
265 -42 99 -14 250 -25 403 -29 71 -2 131 -6 134 -9 3 -3 16 -2 29 3 14 6 26
6 29 -1 4 -5 11 -7 16 -3 5 3 67 7 137 9 132 4 241 11 327 21 28 3 66 8 85 10
19 2 49 5 65 8 17 2 50 7 75 10 25 3 56 8 70 11 14 3 39 7 55 9 44 6 185 35
220 46 17 5 44 11 60 14 61 10 150 37 165 51 9 8 21 15 26 15 10 0 56 64 69
95 21 52 24 106 9 175 -7 30 -15 71 -18 90 -6 35 -11 64 -21 110 -7 29 -24
114 -30 150 -9 46 -14 71 -19 88 -3 9 -7 33 -10 52 -3 19 -8 46 -11 60 -3 14
-8 36 -11 50 -2 14 -7 36 -9 50 -3 14 -8 36 -10 50 -3 14 -7 36 -10 50 -2 14
-7 39 -11 55 -22 114 -61 175 -138 215 -47 24 -130 33 -180 19 -17 -4 -47 -11
-66 -14 -19 -3 -42 -8 -50 -10 -20 -6 -68 -15 -105 -20 -16 -2 -48 -7 -70 -11
-293 -50 -694 -62 -938 -29 -71 9 -176 28 -212 37 -22 5 -47 11 -55 13 -66 13
-195 52 -315 95 -95 35 -312 142 -415 205 -96 59 -236 158 -255 179 -5 6 -28
24 -49 40 -69 52 -270 258 -352 361 -43 55 -83 104 -87 110 -41 51 -149 229
-215 353 -55 103 -134 284 -127 290 3 3 524 5 1158 5 l1153 0 51 23 c80 37
129 105 148 206 2 11 6 27 9 36 3 9 8 31 11 47 2 17 7 39 10 50 2 11 20 92 40
180 19 88 38 171 42 185 12 46 11 120 -2 158 -17 50 -75 115 -122 137 -34 17
-115 29 -168 25 -11 -1 -26 -1 -32 -1 -19 1 -38 1 -95 1 -29 0 -74 1 -101 2
-26 2 -47 0 -47 -3 0 -4 -15 -4 -33 0 -18 5 -41 5 -52 1 -11 -4 -29 -4 -40 0
-11 4 -29 4 -40 0 -11 -4 -31 -4 -45 0 -14 4 -35 4 -46 0 -11 -5 -27 -5 -34 0
-7 4 -25 4 -41 0 -15 -5 -30 -6 -33 -3 -3 3 -42 5 -88 4 -82 -1 -93 -1 -143
-1 -14 0 -32 0 -40 0 -8 0 -26 0 -40 0 -14 0 -32 0 -40 0 -233 3 -304 2 -315
-5 -6 -3 -10 -3 -10 2 0 4 -39 7 -87 5 -49 -1 -92 -3 -98 -3 -5 0 -36 1 -68 3
-31 2 -57 -1 -57 -5 0 -5 -4 -6 -10 -2 -5 3 -31 5 -57 5 -49 -1 -66 0 -141 3
-23 1 -42 -1 -42 -4 0 -4 -18 -3 -39 1 -22 4 -45 4 -52 -1 -7 -4 -22 -4 -33 1
-12 4 -30 4 -41 0 -11 -4 -29 -4 -40 0 -11 4 -32 4 -47 -1 -15 -4 -30 -4 -33
1 -3 4 -20 4 -39 0 -19 -4 -37 -5 -40 -3 -3 3 -33 5 -68 4 -35 -1 -74 -1 -88
-1 -14 1 -31 1 -37 1 -23 -2 -76 -2 -159 -1 -28 1 -31 4 -32 33 0 18 -4 68 -7
112 -13 165 -7 584 10 670 2 11 4 22 4 25 1 3 668 5 1484 5 1394 0 1485 1
1528 18 52 20 110 73 133 121 13 27 61 219 72 286 4 28 11 62 14 70 1 3 2 8 2
11 -1 4 3 22 9 40 5 19 16 66 24 104 8 39 17 84 21 100 15 63 11 141 -9 183
-10 23 -23 42 -28 42 -5 0 -9 6 -9 13 0 7 -23 28 -52 46 -46 30 -60 34 -120
35 -37 1 -68 3 -68 6 0 6 -89 4 -96 -2 -2 -3 -21 -2 -42 1 -20 4 -51 4 -69 0
-17 -3 -36 -3 -43 1 -6 4 -31 4 -55 0 -25 -4 -45 -4 -45 -1 0 5 -227 5 -255 0
-5 -1 -14 -1 -19 0 -13 3 -129 3 -141 1 -5 -1 -14 -2 -19 -1 -13 3 -129 3
-141 1 -5 -1 -14 -2 -19 -1 -21 4 -136 4 -140 0 -2 -2 -45 -2 -95 1 -50 3 -91
2 -91 -1 0 -3 -20 -3 -45 1 -24 4 -49 4 -55 0 -7 -4 -26 -4 -43 -1 -18 4 -49
4 -69 1 -20 -4 -42 -4 -48 0 -6 4 -31 4 -55 0 -25 -4 -45 -4 -45 -1 0 5 -227
5 -255 0 -5 -1 -14 -1 -19 0 -13 3 -129 3 -141 1 -5 -1 -13 -2 -16 -2 -8 1
-151 2 -169 1 -8 0 -62 0 -120 0 -58 0 -114 1 -125 1 -43 -1 -100 -1 -110 -1
-45 -1 -115 5 -115 10 0 3 21 44 45 91 25 47 50 97 56 113 6 15 15 27 20 27 5
0 9 5 9 11 0 5 22 44 50 86 28 42 50 78 50 80 0 2 4 9 10 16 5 7 46 59 91 117
91 115 265 295 374 384 105 86 105 86 105 80 0 -2 12 7 27 21 15 14 31 25 36
25 4 0 17 9 29 20 12 11 28 20 35 20 7 0 13 4 13 8 0 4 22 19 50 33 27 13 50
27 50 32 0 4 4 7 9 7 5 0 30 12 57 27 27 15 55 28 62 29 7 2 20 8 28 15 18 15
175 78 269 109 39 12 77 25 85 28 8 3 20 6 25 8 6 1 25 7 43 13 17 5 32 8 32
5 0 -3 8 0 18 5 9 5 34 12 56 15 21 4 41 8 45 10 3 2 29 7 56 10 28 4 57 9 66
12 9 2 36 6 60 9 24 2 71 8 104 12 77 10 467 10 565 0 125 -12 294 -35 380
-52 122 -23 133 -24 212 -12 30 5 103 58 124 90 20 30 42 86 49 125 2 9 4 17
5 17 1 0 3 7 5 15 2 8 11 42 20 75 9 33 29 112 46 175 16 63 33 122 36 130 9
21 9 21 18 65 4 22 10 45 14 50 3 6 7 19 8 30 2 11 10 43 18 70 8 28 15 53 15
57 1 4 10 38 20 74 11 37 22 86 26 108 3 23 7 43 9 44 4 5 -12 56 -31 99 -16
36 -67 87 -108 108 -15 8 -53 19 -84 24 -31 6 -70 13 -87 16 -16 3 -46 8 -65
11 -19 2 -46 7 -60 9 -14 3 -47 7 -75 10 -27 3 -63 8 -80 11 -16 3 -48 7 -70
9 -22 2 -67 7 -100 10 -95 10 -181 15 -317 19 -70 2 -131 7 -137 10 -5 4 -12
2 -16 -3 -3 -7 -15 -7 -29 -1 -13 5 -26 6 -29 4z"/>
</g>
</svg>
